Normalized EMG Linear Envelopes
nRows=127
nColumns=4

endheader
time	 med_gas_r	  soleus_r	 tib_ant_r	
2.5	  0.010530	  0.021475	  0.005241	
2.5625	  0.010038	  0.021261	  0.005290	
2.625	  0.010244	  0.021316	  0.005402	
2.6875	  0.010929	  0.021644	  0.005641	
2.75	  0.011745	  0.021968	  0.005994	
2.8125	  0.012387	  0.021913	  0.006268	
2.875	  0.012714	  0.021232	  0.006364	
2.9375	  0.012485	  0.020501	  0.006175	
3	  0.012107	  0.020576	  0.005753	
3.0625	  0.012018	  0.022287	  0.005367	
3.125	  0.011956	  0.025525	  0.005141	
3.1875	  0.011643	  0.028802	  0.004994	
3.25	  0.011068	  0.029782	  0.004907	
3.3125	  0.010557	  0.027507	  0.004818	
3.375	  0.010060	  0.024249	  0.004698	
3.4375	  0.009758	  0.021497	  0.004675	
3.5	  0.009787	  0.019646	  0.004749	
3.5625	  0.010148	  0.019032	  0.004937	
3.625	  0.010768	  0.019510	  0.005158	
3.6875	  0.011088	  0.020498	  0.005297	
3.75	  0.010664	  0.021432	  0.005215	
3.8125	  0.010143	  0.022240	  0.004983	
3.875	  0.010411	  0.023139	  0.004816	
3.9375	  0.011588	  0.023828	  0.004834	
4	  0.012725	  0.023973	  0.004936	
4.0625	  0.012939	  0.023545	  0.005045	
4.125	  0.012627	  0.022379	  0.005184	
4.1875	  0.012091	  0.020885	  0.005305	
4.25	  0.011429	  0.020298	  0.005308	
4.3125	  0.010985	  0.020829	  0.005286	
4.375	  0.010954	  0.022059	  0.005426	
4.4375	  0.011252	  0.023505	  0.005883	
4.5	  0.011579	  0.024342	  0.006635	
4.5625	  0.011544	  0.024840	  0.007173	
4.625	  0.010835	  0.024504	  0.007108	
4.6875	  0.009842	  0.021839	  0.006754	
4.75	  0.008917	  0.017485	  0.006229	
4.8125	  0.008575	  0.014794	  0.006071	
4.875	  0.009949	  0.018290	  0.008335	
4.9375	  0.014822	  0.033723	  0.015344	
5	  0.025333	  0.065931	  0.028281	
5.0625	  0.041742	  0.115433	  0.044796	
5.125	  0.059456	  0.173313	  0.059132	
5.1875	  0.073819	  0.228321	  0.069072	
5.25	  0.085435	  0.276238	  0.076892	
5.3125	  0.098386	  0.327800	  0.084675	
5.375	  0.115468	  0.391485	  0.091439	
5.4375	  0.138830	  0.454094	  0.098642	
5.5	  0.171281	  0.503461	  0.105698	
5.5625	  0.209051	  0.537175	  0.110684	
5.625	  0.237324	  0.559684	  0.112244	
5.6875	  0.250132	  0.582573	  0.110323	
5.75	  0.264893	  0.620551	  0.110408	
5.8125	  0.301046	  0.656196	  0.115976	
5.875	  0.348277	  0.665257	  0.124349	
5.9375	  0.379738	  0.658477	  0.127842	
6	  0.385449	  0.656666	  0.129209	
6.0625	  0.375680	  0.668421	  0.131452	
6.125	  0.361541	  0.686841	  0.134634	
6.1875	  0.361504	  0.692126	  0.138649	
6.25	  0.382615	  0.670284	  0.143076	
6.3125	  0.410065	  0.650687	  0.147360	
6.375	  0.423474	  0.651893	  0.150564	
6.4375	  0.419129	  0.671459	  0.150175	
6.5	  0.396241	  0.687306	  0.148452	
6.5625	  0.367427	  0.704097	  0.147085	
6.625	  0.352727	  0.715865	  0.146579	
6.6875	  0.360837	  0.721202	  0.145392	
6.75	  0.385580	  0.716834	  0.143303	
6.8125	  0.416192	  0.708876	  0.143465	
6.875	  0.435487	  0.697795	  0.143356	
6.9375	  0.440034	  0.690986	  0.141462	
7	  0.441846	  0.682936	  0.140002	
7.0625	  0.446583	  0.680726	  0.141965	
7.125	  0.461737	  0.684650	  0.147635	
7.1875	  0.498358	  0.687865	  0.154252	
7.25	  0.547197	  0.699170	  0.156443	
7.3125	  0.576253	  0.706933	  0.156403	
7.375	  0.578439	  0.716995	  0.158177	
7.4375	  0.574986	  0.731234	  0.158782	
7.5	  0.571143	  0.734465	  0.156896	
7.5625	  0.561472	  0.721345	  0.152620	
7.625	  0.550043	  0.703543	  0.142578	
7.6875	  0.539329	  0.716131	  0.129816	
7.75	  0.527668	  0.758680	  0.122212	
7.8125	  0.525381	  0.800319	  0.121276	
7.875	  0.531857	  0.807186	  0.124062	
7.9375	  0.545702	  0.782306	  0.126962	
8	  0.559109	  0.749991	  0.130552	
8.0625	  0.563618	  0.727036	  0.134335	
8.125	  0.564131	  0.725865	  0.137481	
8.1875	  0.563701	  0.745390	  0.138097	
8.25	  0.564286	  0.784657	  0.136089	
8.3125	  0.581357	  0.841298	  0.136446	
8.375	  0.618911	  0.891931	  0.139690	
8.4375	  0.654350	  0.905788	  0.143571	
8.5	  0.670444	  0.886087	  0.152487	
8.5625	  0.685986	  0.849551	  0.165140	
8.625	  0.700257	  0.804938	  0.173049	
8.6875	  0.700873	  0.755274	  0.175983	
8.75	  0.701513	  0.701173	  0.176004	
8.8125	  0.708875	  0.657575	  0.174692	
8.875	  0.706518	  0.631719	  0.170592	
8.9375	  0.701883	  0.636015	  0.161340	
9	  0.700745	  0.662090	  0.153228	
9.0625	  0.688937	  0.695646	  0.150741	
9.125	  0.676894	  0.739196	  0.152945	
9.1875	  0.669407	  0.790657	  0.156354	
9.25	  0.668117	  0.827577	  0.159059	
9.3125	  0.673236	  0.846192	  0.160299	
9.375	  0.681289	  0.843993	  0.159634	
9.4375	  0.684167	  0.814143	  0.160683	
9.5	  0.680342	  0.760050	  0.161949	
9.5625	  0.662377	  0.697936	  0.164637	
9.625	  0.630112	  0.638775	  0.167074	
9.6875	  0.575558	  0.577245	  0.166222	
9.75	  0.501325	  0.512336	  0.164633	
9.8125	  0.429350	  0.447706	  0.159259	
9.875	  0.369957	  0.394531	  0.145830	
9.9375	  0.320021	  0.354657	  0.126867	
10	  0.269469	  0.319747	  0.106172	
10.0625	  0.211301	  0.268646	  0.083695	
10.125	  0.145556	  0.196357	  0.060872	
10.1875	  0.086133	  0.124938	  0.040717	
10.25	  0.043122	  0.072419	  0.024699	
10.3125	  0.018867	  0.041584	  0.013635	
10.375	  0.008969	  0.027359	  0.007547	
